<svg width="1024" height="1024" viewBox="0 0 1024 1024" fill="none" xmlns="http://www.w3.org/2000/svg">
<rect width="1024" height="1024" rx="128" fill="#273139"/>
<path d="M262.364 509.455V475.636C292.727 475.636 313.909 469.273 325.909 456.545C338.091 443.818 344.182 422.545 344.182 392.727V305.455C344.182 280.364 346.545 258.636 351.273 240.273C356.182 221.909 364.091 206.727 375 194.727C385.909 182.727 400.455 173.818 418.636 168C436.818 162.182 459.273 159.273 486 159.273V212.727C464.909 212.727 448.273 216 436.091 222.545C424.091 229.091 415.545 239.273 410.455 253.091C405.545 266.727 403.091 284.182 403.091 305.455V414.545C403.091 428.727 401.182 441.636 397.364 453.273C393.727 464.909 386.909 474.909 376.909 483.273C366.909 491.636 352.636 498.091 334.091 502.636C315.727 507.182 291.818 509.455 262.364 509.455ZM486 857.455C459.273 857.455 436.818 854.545 418.636 848.727C400.455 842.909 385.909 834 375 822C364.091 810 356.182 794.818 351.273 776.455C346.545 758.091 344.182 736.364 344.182 711.273V624C344.182 594.182 338.091 572.909 325.909 560.182C313.909 547.455 292.727 541.091 262.364 541.091V507.273C291.818 507.273 315.727 509.545 334.091 514.091C352.636 518.636 366.909 525.091 376.909 533.455C386.909 541.818 393.727 551.818 397.364 563.455C401.182 575.091 403.091 588 403.091 602.182V711.273C403.091 732.545 405.545 750 410.455 763.636C415.545 777.273 424.091 787.364 436.091 793.909C448.273 800.636 464.909 804 486 804V857.455ZM262.364 541.091V475.636H326.727V541.091H262.364ZM762.068 507.273V541.091C731.705 541.091 710.432 547.455 698.25 560.182C686.25 572.909 680.25 594.182 680.25 624V711.273C680.25 736.364 677.795 758.091 672.886 776.455C668.159 794.818 660.341 810 649.432 822C638.523 834 623.977 842.909 605.795 848.727C587.614 854.545 565.159 857.455 538.432 857.455V804C559.523 804 576.068 800.636 588.068 793.909C600.25 787.364 608.795 777.273 613.705 763.636C618.795 750 621.341 732.545 621.341 711.273V602.182C621.341 588 623.159 575.091 626.795 563.455C630.614 551.818 637.523 541.818 647.523 533.455C657.523 525.091 671.705 518.636 690.068 514.091C708.614 509.545 732.614 507.273 762.068 507.273ZM538.432 159.273C565.159 159.273 587.614 162.182 605.795 168C623.977 173.818 638.523 182.727 649.432 194.727C660.341 206.727 668.159 221.909 672.886 240.273C677.795 258.636 680.25 280.364 680.25 305.455V392.727C680.25 422.545 686.25 443.818 698.25 456.545C710.432 469.273 731.705 475.636 762.068 475.636V509.455C732.614 509.455 708.614 507.182 690.068 502.636C671.705 498.091 657.523 491.636 647.523 483.273C637.523 474.909 630.614 464.909 626.795 453.273C623.159 441.636 621.341 428.727 621.341 414.545V305.455C621.341 284.182 618.795 266.727 613.705 253.091C608.795 239.273 600.25 229.091 588.068 222.545C576.068 216 559.523 212.727 538.432 212.727V159.273ZM762.068 475.636V541.091H697.705V475.636H762.068Z" fill="#4097E7"/>
</svg>
